<svg viewBox="0 0 24 24" xmlns="http://www.w3.org/2000/svg">
  <path d="M11.48 4.246a2 2 0 0 0-.291.279c-.092.125-.183.75-.125.87.02.042 1.172 1.234 2.561 2.65 2.632 2.684 2.801 2.862 2.761 2.902-.037.037-4.807.088-8.451.091l-3.246.002-.222.183c-.271.223-.387.443-.387.735 0 .41.185.748.477.873.227.097 1.386.124 6.543.152 2.596.014 4.871.037 5.057.051l.336.026-2.732 2.773-2.732 2.772.044.38c.027.24.07.424.118.499.107.17.449.414.662.474.165.046.199.043.355-.033a3.4 3.4 0 0 0 .507-.369c.535-.457 2.598-2.481 4.542-4.457 2.399-2.438 2.59-2.649 2.699-2.986.1-.305-.057-.511-1.643-2.153-1.343-1.39-5.002-5.02-5.433-5.39-.379-.326-.593-.434-.924-.47l-.263-.028z"/>
</svg>
