<svg viewBox="0 0 24 24" xmlns="http://www.w3.org/2000/svg">
  <path d="M11.71 4.055a1.7 1.7 0 0 0-.38.248c-.127.105-1.798 1.759-3.714 3.675-3.296 3.296-3.487 3.494-3.555 3.698-.138.415.026.897.392 1.149.315.217.799.217 1.084 0 .076-.058 1.337-1.296 2.801-2.75L11 7.431v5.906c0 5.834.001 5.908.08 6.064.191.372.516.577.92.577s.729-.205.92-.577c.079-.156.08-.23.08-6.064V7.43l2.66 2.643c1.463 1.454 2.724 2.691 2.801 2.75.168.129.448.189.71.155.562-.075.955-.737.77-1.295-.064-.192-.275-.415-2.875-3.031-2.951-2.97-4.466-4.449-4.662-4.55-.174-.09-.517-.113-.694-.047"/>
</svg>
