<svg viewBox="0 0 24 24" xmlns="http://www.w3.org/2000/svg">
  <path d="M11.41 4.282c-.363.279-.345.177-.375 2.178-.015.968-.028 2.689-.031 3.823-.006 2.903-.052 6.157-.086 6.157-.017 0-.864-.821-1.884-1.824-2.087-2.054-3.16-3.077-3.454-3.297-.351-.262-.67-.297-1.028-.115-.369.188-.527.484-.504.944l.012.248 3.754 3.782 3.753 3.782h.215c.469 0 .575-.049 1.046-.488.799-.745 4.845-4.752 5.808-5.751 1.164-1.209 1.283-1.359 1.307-1.648.039-.463-.207-.796-.693-.937-.31-.091-.557-.033-.851.198-.294.232-1.42 1.305-3.539 3.375l-1.76 1.719-.026-.384c-.014-.211-.047-2.661-.072-5.444-.045-4.87-.069-5.816-.157-6.046-.046-.123-.244-.284-.456-.373a1.4 1.4 0 0 0-.458-.06c-.301 0-.317.005-.521.161"/>
</svg>
