<svg viewBox="0 0 24 24" xmlns="http://www.w3.org/2000/svg">
  <path d="M11.505 4.257a1.32 1.32 0 0 0-.407.74c-.057.272-.056.298.011.402.039.061 1.125 1.207 2.414 2.546a420 420 0 0 1 2.577 2.693l.235.258-.114.03c-.192.051-4.69.114-8.228.114H4.646l-.164.19c-.195.226-.402.622-.402.766.001.13.176.513.293.638.155.167.292.208.818.245.53.038 3.126.093 7.629.161 1.452.022 2.833.052 3.068.066.38.022.425.033.394.091-.042.078-1.222 1.298-3.525 3.645l-1.709 1.742.019.198c.036.361.123.596.298.794.168.191.519.423.642.424.165.001.835-.604 2.696-2.433 2.464-2.421 4.744-4.75 4.998-5.107.146-.203.196-.312.209-.454.017-.172.004-.206-.162-.428-.313-.416-1.04-1.19-2.548-2.713-1.964-1.985-4.093-4.056-4.405-4.286-.355-.261-.673-.413-.926-.443-.21-.025-.221-.021-.364.121"/>
</svg>
