<svg viewBox="0 0 24 24" xmlns="http://www.w3.org/2000/svg">
  <path d="M11.666 4.096c-.147.055-.274.149-.436.324-.139.15-.19.328-.19.663v.326l1.089 1.105c.599.608 1.825 1.847 2.725 2.753.932.939 1.623 1.665 1.608 1.69-.019.03-.774.043-2.538.043-1.381 0-4.028.012-5.882.027l-3.371.026-.238.176c-.297.218-.391.404-.391.771 0 .404.21.749.538.885.157.065 3.143.106 8.2.111l3.8.004-1.702 1.71c-.935.94-2.182 2.199-2.769 2.796l-1.069 1.086v.289c0 .535.147.789.581 1.002.211.105.291.124.439.107.224-.025.369-.124.949-.644.597-.535 5.495-5.43 6.25-6.246.736-.795.814-.948.693-1.351-.061-.205-.618-.799-3.056-3.266-2.161-2.186-4.075-4.044-4.386-4.258-.179-.123-.265-.155-.455-.169a1 1 0 0 0-.389.04"/>
</svg>
