<svg viewBox="0 0 24 24" xmlns="http://www.w3.org/2000/svg">
  <path d="M11.556 4.274a6 6 0 0 0-.478.37c-.87.746-6.183 6.078-6.713 6.736-.306.38-.363.549-.269.796.104.27.226.43.438.573.377.253.621.228 1.036-.107.348-.281.689-.6 2.95-2.76l2.026-1.935c.157-.15.295-.258.305-.24.029.049.066 1.626.11 4.713.06 4.207.117 6.578.163 6.81a.9.9 0 0 0 .147.336c.126.149.538.354.714.354.319 0 .723-.252.829-.517.089-.223.134-1.594.205-6.283.059-3.915.093-5.353.129-5.412.022-.036-.082-.133 2.812 2.635a220 220 0 0 0 2.38 2.257c.255.223.5.358.654.359.236.002.699-.356.843-.653.182-.376.115-.542-.519-1.266-.464-.531-6.088-6.142-6.462-6.447-.556-.454-.939-.548-1.3-.319"/>
</svg>
