<svg viewBox="0 0 24 24" xmlns="http://www.w3.org/2000/svg">
  <path d="M11.479 4.27c-.207.134-.295.251-.354.474-.051.19-.111 2.792-.164 7.056a303 303 0 0 1-.066 3.871l-.026.691-.244-.23A606 606 0 0 1 8.5 14.099c-3.073-2.948-3.019-2.902-3.477-2.932-.277-.017-.449.039-.655.212-.186.157-.274.356-.307.691l-.029.291 3.769 3.799 3.768 3.8h.178c.297 0 .505-.076.789-.289.515-.386 6.099-5.914 6.92-6.851.388-.443.483-.636.45-.916-.045-.38-.329-.652-.776-.746-.191-.04-.23-.035-.42.053-.383.175-.668.431-3.35 3.006l-1.825 1.754c-.268.26-.371.338-.388.293-.022-.058-.058-1.78-.148-7.144a226 226 0 0 0-.079-3.435c-.033-.854-.044-.951-.128-1.119-.129-.259-.366-.375-.806-.397-.305-.014-.337-.008-.507.101"/>
</svg>
