<svg viewBox="0 0 24 24" xmlns="http://www.w3.org/2000/svg">
  <path d="M11.8 4.037a1.09 1.09 0 0 0-.722.566c-.076.151-.078.272-.078 6.062v5.909l-2.67-2.66c-1.71-1.703-2.741-2.701-2.867-2.775-.466-.272-1.104-.069-1.372.435-.045.085-.068.225-.069.43-.001.268.012.324.114.48.148.225 7.148 7.224 7.378 7.377.153.101.208.114.486.114s.333-.013.487-.115c.23-.152 7.228-7.15 7.376-7.376.103-.156.116-.211.115-.48-.003-.428-.164-.689-.553-.894-.253-.134-.63-.121-.888.029-.127.074-1.152 1.066-2.867 2.775L13 16.575v-5.909c0-5.791-.002-5.912-.078-6.063-.214-.418-.685-.656-1.122-.566"/>
</svg>
