<svg viewBox="0 0 24 24" xmlns="http://www.w3.org/2000/svg">
  <path d="M11.793 4.201c-.32.056-.848.548-4.803 4.477l-2.95 2.93v.772l2.47 2.462c3.714 3.702 5.035 4.992 5.185 5.064.126.06.152.059.35-.003.118-.038.314-.135.434-.216.259-.173.434-.48.469-.819.021-.205.016-.219-.149-.41a170 170 0 0 0-2.098-2.178c-2.21-2.271-2.901-3-2.901-3.063 0-.049.571-.07 3.76-.137 5.646-.119 6.938-.16 7.54-.243.34-.046.557-.182.697-.436.179-.324.096-.731-.231-1.12-.112-.135-.128-.141-.471-.167a48 48 0 0 0-1.915-.031c-2.301-.005-7.519-.081-8.44-.122-.785-.036-.98-.06-.98-.121 0-.054.425-.512 2.357-2.54 2.42-2.54 2.598-2.73 2.739-2.934.113-.163.115-.175.068-.382a1.5 1.5 0 0 0-.164-.397c-.185-.292-.589-.453-.967-.386"/>
</svg>
