<svg viewBox="0 0 24 24" xmlns="http://www.w3.org/2000/svg">
  <path d="M11.651 4.146a3 3 0 0 0-.42.312c-.496.423-3.457 3.333-5.013 4.925-2.228 2.28-2.178 2.222-2.178 2.535 0 .334.099.576.317.771.304.274.666.345.98.192.207-.1 1.257-1.093 3.683-3.483l1.92-1.891.025.396c.014.219.03 2.026.035 4.017.004 1.991.02 4.475.035 5.52.03 2.112.02 2.04.307 2.259.178.135.495.261.658.261.15 0 .483-.125.62-.233.232-.182.268-.268.305-.72.02-.235.051-2.895.07-5.912s.047-5.506.063-5.532c.018-.029.718.637 1.877 1.785C18.176 12.56 18.665 13 19.001 13c.059 0 .218-.056.356-.125.299-.149.487-.384.584-.728.065-.233.064-.235-.038-.445-.143-.291-1.06-1.255-3.838-4.034-2.495-2.495-3.332-3.293-3.643-3.471-.236-.136-.557-.157-.771-.051"/>
</svg>
