<svg viewBox="0 0 24 24" xmlns="http://www.w3.org/2000/svg">
  <path d="M11.654 4.264c-.353.174-1.235 1.011-4.864 4.614l-2.75 2.731v.771l2.23 2.224c3.353 3.343 5.206 5.15 5.397 5.262.169.099.175.1.367.036.443-.147.75-.443.866-.836.11-.368.097-.403-.291-.804-.683-.703-4.356-4.525-4.587-4.772-.129-.138-.225-.26-.214-.272.034-.033 1.883-.092 5.012-.158 4.808-.102 6.163-.161 6.506-.282a.82.82 0 0 0 .478-.438c.145-.313.061-.696-.22-1.007l-.169-.186-1.797-.032c-.989-.017-3.175-.051-4.858-.075-2.902-.041-4.582-.091-4.869-.144-.109-.021-.123-.036-.091-.096.058-.108.387-.462 2.581-2.78 2.156-2.277 2.484-2.633 2.547-2.765.051-.107-.045-.459-.178-.657-.227-.336-.761-.499-1.096-.334"/>
</svg>
