<svg viewBox="0 0 24 24" xmlns="http://www.w3.org/2000/svg">
  <path d="M11.81 4.079c-.175.042-.467.269-1.121.871-.646.595-3.138 3.093-5.194 5.206L4.04 11.651v.696l2.236 2.276a366 366 0 0 0 3.797 3.807l1.56 1.53h.237c.339 0 .594-.1.812-.318.209-.21.278-.408.278-.804v-.247l-2.332-2.366c-2.857-2.898-3.055-3.107-2.983-3.147.03-.017 2.402-.051 5.271-.076 5.538-.049 6.346-.072 6.582-.184q.291-.138.401-.507c.073-.247.075-.337.014-.583-.036-.144-.1-.24-.276-.413l-.23-.226-.773-.024c-.426-.012-2.673-.033-4.994-.044-4.706-.024-6-.049-6-.118 0-.066.74-.844 3.137-3.296l2.163-2.213.012-.247a1.6 1.6 0 0 0-.037-.424c-.112-.401-.695-.741-1.105-.644"/>
</svg>
