<svg viewBox="0 0 24 24" xmlns="http://www.w3.org/2000/svg">
  <path d="M11.414 4.31c-.266.254-.318.368-.36.793l-.024.243.313.337c.172.185 1.214 1.264 2.315 2.397l2.379 2.45c.207.214.365.401.351.415-.034.034-5.362.089-8.934.093l-2.807.002-.243.266c-.16.174-.259.322-.288.43-.093.342.052.814.309 1.01.106.081.204.111.445.135.466.047 2.302.079 6.972.12 2.322.021 4.307.05 4.412.064l.191.026-.473.485-2.702 2.749-2.228 2.265.023.275c.036.433.084.566.268.75.169.169.545.385.67.385.166 0 .71-.438 1.577-1.268 1.253-1.201 5.487-5.462 5.893-5.932.639-.737.639-.87.003-1.596-.815-.93-4.682-4.823-6.176-6.218-.796-.742-.92-.819-1.44-.885l-.2-.026z"/>
</svg>
