<svg viewBox="0 0 24 24" xmlns="http://www.w3.org/2000/svg">
  <path d="M11.742 4.182c-.335.115-.862.615-5.012 4.754L4.04 11.62v.76l3.51 3.503a564 564 0 0 0 3.825 3.794l.315.292.205-.027c.417-.054.777-.293.949-.63.046-.09.091-.279.104-.434l.023-.274-1.44-1.472c-3.357-3.432-3.809-3.907-3.759-3.958.033-.032 1.813-.081 4.828-.132 4.857-.082 6.367-.136 6.758-.241.324-.088.562-.423.562-.791-.001-.211-.129-.471-.374-.753l-.141-.164-3.472-.027c-3.777-.03-7.463-.089-7.923-.128-.186-.016-.29-.042-.29-.073 0-.067.476-.576 2.699-2.885 2.754-2.861 2.565-2.643 2.526-2.928-.036-.262-.193-.584-.335-.685-.253-.18-.641-.263-.868-.185"/>
</svg>
