<svg viewBox="0 0 24 24" xmlns="http://www.w3.org/2000/svg">
  <path d="M11.5 4.311c-.454.322-.802.658-4.21 4.062L4.04 11.62v.76l3.796 3.796 3.796 3.796.239-.022c.437-.039.801-.266.979-.61.052-.101.09-.267.102-.449l.018-.289-1.817-1.851c-2.058-2.095-3.351-3.437-3.404-3.532-.02-.036-.029-.072-.02-.082.018-.018 2.663-.072 6.731-.138 4.3-.069 4.864-.102 5.161-.296.116-.076.29-.417.326-.641.029-.176-.119-.486-.369-.771l-.173-.198-3.032-.027c-3.98-.035-8.263-.105-8.508-.139L7.67 10.9l.16-.2c.213-.266.896-.981 3.128-3.274 1.024-1.053 1.896-1.971 1.938-2.041.099-.166.062-.496-.089-.793-.089-.177-.143-.23-.327-.322a1.5 1.5 0 0 0-.46-.134c-.238-.023-.242-.022-.52.175"/>
</svg>
