<svg viewBox="0 0 24 24" xmlns="http://www.w3.org/2000/svg">
  <path d="M11.748 4.136a1.7 1.7 0 0 0-.308.164c-.27.187-1.825 1.686-3.921 3.78q-3.265 3.261-3.423 3.594c-.148.311.017.826.34 1.063.372.273.664.28 1.046.026.208-.138 1.485-1.354 3.778-3.599l1.64-1.606.029.171c.016.094.047 2.565.07 5.491s.057 5.524.076 5.773c.034.439.039.457.17.595.154.162.562.372.723.372.179 0 .552-.16.714-.307a.57.57 0 0 0 .196-.325c.052-.225.105-3.176.144-7.99.016-1.894.039-3.512.053-3.598l.025-.154.54.514a298 298 0 0 1 2.08 2.021c2.375 2.324 2.919 2.813 3.186 2.863.176.033.517-.127.733-.343.306-.306.396-.657.245-.953-.138-.272-.955-1.125-3.721-3.89-2.769-2.768-3.492-3.46-3.759-3.596-.208-.106-.474-.133-.656-.066"/>
</svg>
