<svg viewBox="0 0 24 24" xmlns="http://www.w3.org/2000/svg">
  <path d="M11.74 4.169c-.332.119-.86.596-3.015 2.731-2.336 2.314-4.343 4.383-4.527 4.668-.197.304-.203.449-.035.786.181.361.489.566.852.566.337 0 .462-.108 3.485-3.021 2.29-2.206 2.331-2.244 2.377-2.195.019.02.055 1.638.079 3.596.064 5.031.122 7.856.167 8.026.048.185.235.367.516.505.275.135.475.135.741-.001.253-.13.373-.244.448-.423.076-.183.116-1.396.17-5.247.088-6.191.094-6.48.133-6.48.058 0 .196.13 2.449 2.3 2.475 2.384 2.78 2.67 3.053 2.853.27.18.414.181.713.001.385-.231.649-.649.595-.941-.034-.187-.291-.512-.97-1.233-.859-.912-5.73-5.756-6.106-6.073-.504-.424-.799-.534-1.125-.418"/>
</svg>
