<svg viewBox="0 0 24 24" xmlns="http://www.w3.org/2000/svg">
  <path d="M11.564 4.164c-.237.121-.43.323-.484.505-.032.106-.052 1.889-.068 6.001-.013 3.218-.032 5.85-.042 5.85s-.948-.921-2.084-2.046c-2.377-2.355-3.273-3.201-3.506-3.314-.345-.167-.844-.058-1.125.245-.162.175-.215.344-.215.68v.274l1.307 1.331c.719.731 2.416 2.443 3.77 3.803l2.463 2.473.365-.015c.331-.013.38-.025.52-.132.43-.327 6.19-6.059 7.064-7.03.438-.487.471-.569.4-.986-.057-.33-.134-.433-.447-.593-.308-.158-.604-.175-.86-.051-.226.11-1.02.857-3.439 3.237-1.142 1.124-2.089 2.044-2.104 2.044-.035 0-.078-3.25-.081-6.18-.003-3.061-.053-5.479-.116-5.64-.12-.305-.445-.505-.862-.529-.232-.013-.31-.001-.456.073"/>
</svg>
