<svg viewBox="0 0 24 24" xmlns="http://www.w3.org/2000/svg">
  <path d="M11.596 4.171c-.184.124-.419.446-.477.652-.026.093-.05.259-.053.367l-.006.198 2.102 2.176c3.27 3.387 3.209 3.321 3.166 3.364-.049.049-4.76.108-8.735.11l-2.947.002-.184.21c-.215.245-.382.559-.382.716 0 .181.164.565.299.7.069.07.198.146.287.17.248.067 2.144.118 5.994.162 3.96.046 5.523.079 5.638.121.089.033.108.013-3.304 3.485l-1.95 1.983.022.237c.048.539.235.834.67 1.06.254.132.26.133.396.068.075-.036.297-.199.493-.363.842-.703 6.423-6.29 6.993-7 .302-.375.378-.566.3-.754-.144-.347-1.046-1.314-3.742-4.012-2.154-2.155-3.243-3.194-3.59-3.426-.21-.14-.411-.218-.751-.293-.071-.016-.147.006-.239.067"/>
</svg>
