<svg viewBox="0 0 24 24" xmlns="http://www.w3.org/2000/svg">
  <path d="M12 1C7.317 1 3.5 4.817 3.5 9.5A8.47 8.47 0 0 0 6 15.51V22a1 1 0 0 0 1.371.928L12 21.076l4.629 1.852A1 1 0 0 0 18 22v-6.49a8.47 8.47 0 0 0 2.5-6.01C20.5 4.817 16.683 1 12 1m0 2c3.602 0 6.5 2.898 6.5 6.5S15.602 16 12 16a6.485 6.485 0 0 1-6.5-6.5C5.5 5.898 8.398 3 12 3M8 16.86c1.21.663 2.527 1.14 4 1.14s2.79-.477 4-1.14v3.663l-3.332-1.334c-.11-.044-.232-.1-.441-.132a1.5 1.5 0 0 0-.454 0c-.21.032-.33.088-.441.132L8 20.523Z"/>
</svg>
