<svg viewBox="0 0 24 24" xmlns="http://www.w3.org/2000/svg">
  <path d="M12 1a7 7 0 0 0-7 7c0 2.922-.727 4.833-1.5 6.076a54 54 0 0 0-.842 1.38 5 5 0 0 0-.246.466c-.068.15-.184.244-.146.701.012.15.042.379.172.611.129.233.306.381.427.471.322.239.482.219.639.242a4 4 0 0 0 .484.04c.353.013.803.013 1.4.013h13.223c.598 0 1.048 0 1.4-.014.177-.007.328-.015.485-.039.157-.023.317-.003.639-.242.121-.09.298-.238.427-.47.13-.233.162-.461.174-.612.038-.458-.08-.55-.148-.701a5 5 0 0 0-.246-.467 54 54 0 0 0-.842-1.379C19.727 12.833 19 10.922 19 8a7 7 0 0 0-7-7m0 2a5 5 0 0 1 5 5c0 3.258.832 5.577 1.8 7.133.24.385.372.604.528.861-.232.002-.393.006-.717.006H5.39c-.324 0-.485-.004-.717-.006.156-.257.288-.476.527-.861C6.167 13.577 7 11.258 7 8a5 5 0 0 1 5-5M9.293 20.002a1 1 0 0 0-.69.336 1 1 0 0 0 .09 1.412A5 5 0 0 0 12 23a5 5 0 0 0 3.307-1.25 1 1 0 0 0 .088-1.412 1 1 0 0 0-1.41-.088c-.53.468-1.219.75-1.985.75a2.98 2.98 0 0 1-1.984-.75 1 1 0 0 0-.723-.248"/>
</svg>
