<svg viewBox="0 0 24 24" xmlns="http://www.w3.org/2000/svg">
  <path d="M11.26 1.028c-1.648.149-2.892.499-4.292 1.21-1.038.526-1.829 1.112-2.763 2.047-1.033 1.034-1.726 2.04-2.269 3.295-.683 1.579-.977 3.1-.924 4.777.067 2.106.694 4.022 1.911 5.843.676 1.01 1.853 2.184 2.897 2.888 2.869 1.936 6.395 2.429 9.628 1.347a11.4 11.4 0 0 0 3.093-1.598c.717-.533 1.763-1.578 2.296-2.296a11.4 11.4 0 0 0 1.957-4.441c.152-.772.184-1.147.184-2.1 0-.563-.021-1.092-.053-1.32-.327-2.347-1.274-4.41-2.761-6.019-1.77-1.914-3.814-3.051-6.264-3.483-.484-.085-2.058-.197-2.4-.171zm1.768 2.053c1.328.12 2.797.662 4.017 1.482.993.668 2.004 1.723 2.611 2.724.283.467.723 1.403.881 1.875.304.908.423 1.713.423 2.846-.001 1.534-.229 2.555-.861 3.865-.473.978-.927 1.631-1.657 2.381-1.121 1.152-2.235 1.836-3.816 2.341-1.761.563-3.641.536-5.485-.078a8.5 8.5 0 0 1-3.317-1.996A8.8 8.8 0 0 1 3.9 15.869c-.625-1.298-.86-2.347-.86-3.841.001-1.59.226-2.595.88-3.934.833-1.705 2.071-3.024 3.7-3.942 1.097-.618 2.365-1.002 3.72-1.125.227-.021 1.205.011 1.688.054m3.245 4.956a1 1 0 0 0-.26.103c-.062.041-1.229 1.183-2.594 2.537a609 609 0 0 1-2.706 2.678l-.225.214-1.231-1.209c-.7-.688-1.288-1.234-1.363-1.265-.169-.071-.619-.071-.788 0-.38.159-.604.542-.579.987.015.263.02.275.254.543.358.413 2.293 2.366 2.827 2.853.569.521.754.596 1.163.474.206-.062 1.124-.936 3.632-3.458 2.1-2.113 2.896-2.938 3.003-3.114.05-.081.074-.197.073-.36 0-.652-.562-1.11-1.206-.983"/>
</svg>
