<svg viewBox="0 0 24 24" xmlns="http://www.w3.org/2000/svg">
  <path d="M11.695 2.057a1.04 1.04 0 0 0-.567.459l-.108.184-.011 5.938-.01 5.939-2.23-2.223c-2.014-2.008-2.248-2.23-2.426-2.289a1 1 0 0 0-1.215.451c-.091.156-.108.23-.108.484s.016.328.107.48c.135.226 6.241 6.325 6.433 6.425.099.052.228.074.44.074.255.001.327-.015.48-.106.226-.135 6.325-6.241 6.425-6.433.052-.099.074-.228.074-.44.001-.255-.015-.328-.107-.484a1 1 0 0 0-1.215-.451c-.178.059-.412.281-2.426 2.289l-2.23 2.223-.01-5.939L12.98 2.7l-.108-.184a1.005 1.005 0 0 0-1.177-.459m-9 18a1.04 1.04 0 0 0-.567.459c-.091.156-.108.23-.108.484 0 .256.016.328.111.489.125.213.318.375.539.454.223.08 18.437.08 18.66 0 .221-.079.414-.241.539-.454.095-.161.111-.233.111-.489 0-.254-.017-.328-.108-.484a1.02 1.02 0 0 0-.582-.461c-.263-.079-18.343-.077-18.595.002"/>
</svg>
