<svg viewBox="0 0 24 24" xmlns="http://www.w3.org/2000/svg">
  <path d="M11.26 1.028c-1.648.149-2.892.499-4.292 1.21-1.038.526-1.829 1.112-2.763 2.047-1.033 1.034-1.726 2.04-2.269 3.295-.683 1.579-.977 3.1-.924 4.777.067 2.106.694 4.022 1.911 5.843.676 1.01 1.853 2.184 2.897 2.888 2.869 1.936 6.395 2.429 9.628 1.347a11.4 11.4 0 0 0 3.093-1.598c.717-.533 1.763-1.578 2.296-2.296a11.4 11.4 0 0 0 1.957-4.441c.152-.772.184-1.147.184-2.1 0-.563-.021-1.092-.053-1.32-.327-2.347-1.274-4.41-2.761-6.019-1.77-1.914-3.814-3.051-6.264-3.483-.484-.085-2.058-.197-2.4-.171zm1.768 2.053c1.328.12 2.797.662 4.017 1.482.993.668 2.004 1.723 2.611 2.724.283.467.723 1.403.881 1.875.304.908.423 1.713.423 2.846-.001 1.534-.229 2.555-.861 3.865-.473.978-.927 1.631-1.657 2.381-1.121 1.152-2.235 1.836-3.816 2.341-1.761.563-3.641.536-5.485-.078a8.5 8.5 0 0 1-3.317-1.996A8.8 8.8 0 0 1 3.9 15.869c-.625-1.298-.86-2.347-.86-3.841.001-1.59.226-2.595.88-3.934.833-1.705 2.071-3.024 3.7-3.942 1.097-.618 2.365-1.002 3.72-1.125.227-.021 1.205.011 1.688.054M11.44 6.044a3 3 0 0 0-.709.149c-.821.278-1.426.684-1.896 1.277-.765.962-.925 1.722-.463 2.204.27.281.627.379.992.272.321-.094.473-.244.718-.71.347-.66.764-1.014 1.383-1.176.857-.223 1.838.247 2.229 1.067.152.321.239.759.199 1.014-.098.634-.875 1.309-2.137 1.856-.433.188-.606.333-.742.623-.164.351-.108.702.162 1.008.183.209.494.371.712.372.365.001 1.331-.423 2.045-.899 1.004-.668 1.621-1.432 1.874-2.321.072-.256.09-.419.09-.82-.001-1.084-.372-1.976-1.151-2.767a3.9 3.9 0 0 0-1.722-1.034c-.362-.1-1.074-.151-1.584-.115m.114 10.076a1.24 1.24 0 0 0-.45.434c-.147.286-.12.707.061.981.516.779 1.728.494 1.823-.428.042-.407-.175-.816-.521-.983-.232-.113-.702-.115-.913-.004"/>
</svg>
