<svg viewBox="0 0 24 24" xmlns="http://www.w3.org/2000/svg">
  <path d="M15 2c-3.854 0-7 3.146-7 7q0 .477.063.94c.037.276.045.454.052.519-.035.038-.109.119-.244.254l-5.11 5.111c-.172.173-.32.307-.466.545q-.166.27-.24.578c-.065.272-.055.47-.055.715V19.4c0 .56-.05.98.219 1.508.191.377.497.682.873.873.528.27.948.219 1.508.219H7a1 1 0 0 0 1-1v-1h1a1 1 0 0 0 1-1v-1h1a1 1 0 0 0 .707-.293l1.58-1.578c.14-.14.22-.213.256-.246.067.007.243.018.518.055Q14.522 16 15 16c3.854 0 7-3.146 7-7s-3.146-7-7-7m0 2c2.773 0 5 2.227 5 5s-2.227 5-5 5q-.344 0-.674-.045c-.433-.058-.642-.126-1.062-.066h-.002c-.212.03-.507.13-.692.234-.313.175-.46.351-.699.59L10.586 16H9a1 1 0 0 0-1 1v1H7a1 1 0 0 0-1 1v1H4.6c-.338 0-.509-.016-.58-.02.002.047 0 .06-.02.02-.04-.02-.027-.022.02-.02-.004-.071-.02-.242-.02-.58v-1.738c0-.153.003-.221.004-.246q-.015.016-.004-.002.005-.022.004.002c.016-.017.062-.068.172-.178l5.111-5.11c.239-.238.415-.385.59-.698.104-.186.204-.483.234-.694.06-.42-.008-.628-.066-1.062A5 5 0 0 1 10 9c0-2.773 2.227-5 5-5m0 2a1 1 0 0 0-1 1 1 1 0 0 0 1 1c.257 0 .508.094.707.293.2.2.293.45.293.707a1 1 0 0 0 1 1 1 1 0 0 0 1-1 3.004 3.004 0 0 0-3-3"/>
</svg>
