<svg viewBox="0 0 24 24" xmlns="http://www.w3.org/2000/svg">
  <path d="M11 1a1 1 0 0 0-.707.293 1 1 0 0 0 0 1.414L11.586 4H9c-4.406 0-8 3.594-8 8a8.01 8.01 0 0 0 4.57 7.23 1 1 0 0 0 1.332-.474 1 1 0 0 0-.472-1.332A6 6 0 0 1 3 12c0-3.326 2.674-6 6-6h2.586l-1.293 1.293a1 1 0 0 0 0 1.414 1 1 0 0 0 1.414 0l3-3a1 1 0 0 0 .26-.447 1 1 0 0 0 0-.18L15 5a1 1 0 0 0-.033-.166 1 1 0 0 0 0-.094l-.028-.049a1 1 0 0 0-.232-.398l-3-3A1 1 0 0 0 11 1m7.05 3.674a1 1 0 0 0-.952.57 1 1 0 0 0 .472 1.332A6 6 0 0 1 21 12c0 3.326-2.674 6-6 6h-2.586l1.293-1.293a1 1 0 0 0 0-1.414 1 1 0 0 0-1.414 0l-3 3A1 1 0 0 0 9 19a1 1 0 0 0 .293.707l3 3a1 1 0 0 0 1.414 0 1 1 0 0 0 0-1.414L12.414 20H15c4.406 0 8-3.594 8-8a8.01 8.01 0 0 0-4.57-7.23 1 1 0 0 0-.38-.096"/>
</svg>
