<svg viewBox="0 0 24 24" xmlns="http://www.w3.org/2000/svg">
  <path d="M2.695 2.057a1.04 1.04 0 0 0-.567.459c-.091.156-.108.23-.108.484 0 .256.016.328.111.489.125.213.318.375.539.454.223.08 18.437.08 18.66 0 .221-.079.414-.241.539-.454.095-.161.111-.233.111-.489 0-.254-.017-.328-.108-.484a1.02 1.02 0 0 0-.582-.461c-.263-.079-18.343-.077-18.595.002m8.965 4.009c-.187.057-.404.264-3.313 3.167-1.775 1.772-3.159 3.184-3.22 3.287-.091.152-.107.226-.107.48 0 .257.016.327.113.492.13.222.369.409.603.473.203.054.531.024.709-.066.074-.037 1.129-1.059 2.344-2.272l2.21-2.205.01 5.942.011 5.942.121.197c.068.11.205.253.311.325.471.316 1.102.171 1.407-.325l.121-.197.011-5.942.01-5.942 2.21 2.205c1.215 1.213 2.27 2.235 2.344 2.272.455.229 1.046.045 1.312-.407.097-.165.113-.235.113-.492 0-.254-.016-.328-.107-.48-.061-.103-1.445-1.515-3.22-3.287-3.02-3.013-3.119-3.108-3.33-3.17a.97.97 0 0 0-.663.003"/>
</svg>
