<svg viewBox="0 0 24 24" xmlns="http://www.w3.org/2000/svg">
  <path d="M11.26 1.028c-1.648.149-2.892.499-4.292 1.21-1.038.526-1.829 1.112-2.763 2.047-1.033 1.034-1.726 2.04-2.269 3.295-.683 1.579-.977 3.1-.924 4.777.067 2.106.694 4.022 1.911 5.843.676 1.01 1.853 2.184 2.897 2.888 2.869 1.936 6.395 2.429 9.628 1.347a11.4 11.4 0 0 0 3.093-1.598c.717-.533 1.763-1.578 2.296-2.296a11.4 11.4 0 0 0 1.957-4.441c.152-.772.184-1.147.184-2.1 0-.563-.021-1.092-.053-1.32-.327-2.347-1.274-4.41-2.761-6.019-1.77-1.914-3.814-3.051-6.264-3.483-.484-.085-2.058-.197-2.4-.171zm1.768 2.053c1.328.12 2.797.662 4.017 1.482.993.668 2.004 1.723 2.611 2.724.283.467.723 1.403.881 1.875.304.908.423 1.713.423 2.846-.001 1.534-.229 2.555-.861 3.865-.473.978-.927 1.631-1.657 2.381-1.121 1.152-2.235 1.836-3.816 2.341-1.761.563-3.641.536-5.485-.078a8.5 8.5 0 0 1-3.317-1.996A8.8 8.8 0 0 1 3.9 15.869c-.625-1.298-.86-2.347-.86-3.841.001-1.59.226-2.595.88-3.934.833-1.705 2.071-3.024 3.7-3.942 1.097-.618 2.365-1.002 3.72-1.125.227-.021 1.205.011 1.688.054M8.78 8.035a1.15 1.15 0 0 0-.689.539c-.09.169-.09.678.001.851.035.068.607.676 1.271 1.35L10.569 12l-1.167 1.184c-.641.652-1.215 1.258-1.274 1.347-.092.139-.108.205-.107.446.002.318.085.523.302.74.209.208.344.259.684.258.264-.001.33-.016.466-.106.087-.057.692-.63 1.343-1.272L12 13.43l1.184 1.167c.651.642 1.258 1.216 1.347 1.275.139.092.205.108.446.107.321-.002.52-.084.739-.306.214-.217.26-.339.259-.68-.001-.264-.016-.33-.106-.466-.057-.087-.63-.692-1.272-1.343L13.43 12l1.14-1.156a43 43 0 0 0 1.25-1.3c.334-.438.17-1.11-.341-1.4-.186-.105-.259-.124-.482-.122-.215.002-.299.023-.457.116-.11.064-.704.618-1.367 1.274L12 10.572l-1.173-1.16c-.645-.638-1.255-1.209-1.356-1.268a1.02 1.02 0 0 0-.691-.109"/>
</svg>
